<svg width="20" height="20" viewBox="0 0 20 20" fill="none" xmlns="http://www.w3.org/2000/svg">
<path d="M6.04001 0.319946C2.8863 0.319946 0.320007 2.88624 0.320007 6.03995V13.9599C0.320007 17.1137 2.8863 19.6799 6.04001 19.6799H13.96C17.1137 19.6799 19.68 17.1137 19.68 13.9599V6.03995C19.68 2.88624 17.1137 0.319946 13.96 0.319946H6.04001ZM6.04001 1.19995H13.96C16.6381 1.19995 18.8 3.36189 18.8 6.03995V13.9599C18.8 16.638 16.6381 18.7999 13.96 18.7999H6.04001C3.36195 18.7999 1.20001 16.638 1.20001 13.9599V6.03995C1.20001 3.36189 3.36195 1.19995 6.04001 1.19995ZM15.28 3.83995C15.0466 3.83995 14.8228 3.93266 14.6578 4.09769C14.4927 4.26272 14.4 4.48656 14.4 4.71995C14.4 4.95334 14.4927 5.17717 14.6578 5.3422C14.8228 5.50723 15.0466 5.59995 15.28 5.59995C15.5134 5.59995 15.7372 5.50723 15.9023 5.3422C16.0673 5.17717 16.16 4.95334 16.16 4.71995C16.16 4.48656 16.0673 4.26272 15.9023 4.09769C15.7372 3.93266 15.5134 3.83995 15.28 3.83995ZM10 5.15995C7.33216 5.15995 5.16001 7.3321 5.16001 9.99995C5.16001 12.6678 7.33216 14.8399 10 14.8399C12.6679 14.8399 14.84 12.6678 14.84 9.99995C14.84 7.3321 12.6679 5.15995 10 5.15995ZM10 6.03995C12.1923 6.03995 13.96 7.80769 13.96 9.99995C13.96 12.1922 12.1923 13.9599 10 13.9599C7.80775 13.9599 6.04001 12.1922 6.04001 9.99995C6.04001 7.80769 7.80775 6.03995 10 6.03995Z" fill="black"/>
</svg>